<svg xmlns="http://www.w3.org/2000/svg" xml:space="preserve" style="enable-background:new 0 0 418 276.4" viewBox="0 0 418 276.4">
  <path d="M176 202c-6 12-32 56-87 56-64 0-89-49-89-98C0 72 86 1 154 1c26 0 46 13 61 13 7 0 12-4 14-10l6 1-24 67h-5l1-23c0-30-30-43-54-43C77 6 41 146 41 201c0 37 13 52 50 52 40 0 67-30 79-50z" style="stroke-width:1.19404"/>
  <path d="M132 120h1c5-6 16-10 25-10 19 0 31 13 31 32v52h-17v-53c0-11-5-17-16-17-17 0-24 11-24 27v43h-17v-83h17v9zm91 8h33v15h-33v51h-17V82h58v16h-41zm104 57c-6 6-14 10-23 10-25 0-37-20-37-42 0-23 11-43 36-43 9 0 19 3 24 10h1V74h16v120h-16zm0-33c0-15-6-28-22-28-15 0-21 15-21 28s6 29 22 29 21-16 21-29zm70 26h20v16h-57v-16h20V98h-16V82h50v16h-17z" style="stroke-width:1.19404"/>
  <path d="M185 202h17v1h-5l-8 22-2 8c0 5 3 8 8 8 9 0 13-7 15-13l8-25h-6l1-1h11l-1 1h-4l-9 26c-2 9-8 13-16 13s-13-5-13-11l2-9 7-19h-6zm49 1h-5v-1h17v1h-5l-13 37h10c7 0 11-7 13-10l-3 11h-33l1-1h4zm42 0h-4c-6 0-11 8-12 10h-1l4-11h34l-4 11h-1l1-5c0-3-2-5-7-5h-3l-13 37h5v1h-18l1-1h4zm26-1h17v1h-5l-8 22-2 8c0 5 3 8 8 8 9 0 13-7 15-13l8-25h-6l1-1h10v1h-5l-8 26c-3 9-8 13-16 13s-13-5-13-11l2-9 7-19h-6zm49 1h-5v-1h14c5 0 13 2 13 9s-9 9-16 9c4 1 10 1 10 7l-1 10c0 2 1 4 3 4l1-1v1h-3c-7 0-8-1-8-6v-5l1-5c0-3-1-5-8-5l-7 20h5v1h-17v-1h5zm1 17h2l7-2c2-1 4-4 4-9 0-4-2-6-6-6h-1zm40-17h-5v-1h31l-4 9v-3c0-3-1-5-5-5h-10l-6 17h3c5 0 8-6 9-7h1l-6 16h-1l1-4c0-3-2-4-6-4h-1l-7 19h10c7 0 12-7 13-10l-3 11h-32v-1h5z" class="st1" style="stroke-width:1.19404"/>
</svg>
